<?xml version="1.0" encoding="utf-8"?>
<!-- Svg Vector Icons : http://www.sfont.cn -->
<!DOCTYPE svg PUBLIC "-//W3C//DTD SVG 1.1//EN" "http://www.w3.org/Graphics/SVG/1.1/DTD/svg11.dtd">
<svg version="1.1" xmlns="http://www.w3.org/2000/svg" xmlns:xlink="http://www.w3.org/1999/xlink" x="0px" y="0px" viewBox="0 0 1000 1000" enable-background="new 0 0 1000 1000" xml:space="preserve">
<metadata> Svg Vector Icons : http://www.sfont.cn </metadata>
<g><path d="M184.7,329.9c-12.1,39.1-25.9,75.9-42,111.5c-9.2,19.5-17.8,37.9-25.9,55.8c-8,20.7-16.7,38.5-25.9,54.6c-13.8-1.2-25.9-6.9-36.2-16.1c10.9-26.4,21.3-51.7,31-74.7C62.3,452.3,37,440.2,10,424.1c2.9-11.5,7.5-23,13.8-33.9c27,9.2,52.9,20.1,77.6,33.9c10.9-25.9,21.3-48.9,30.5-69.6c-40.2-14.9-76.5-31-108.6-47.1c2.3-12.6,6.3-23.6,13.2-33.9C82.4,289.6,131.9,308.6,184.7,329.9z M164.1,685.7c-4.6-14.9-8-29.3-9.8-44.3c11.5-2.3,24.7-4,38.5-5.7c6.3,17.2,11.5,34.5,14.9,50.6c25.3,0,51.2,0,76.4,1.2c6.3-19.6,16.1-39.1,29.3-57.5c10.9,2.9,21.8,6.9,33.3,11.5c-3.5,18.4-9.2,33.9-17.2,47.7c23.6,0.6,47.1,1.2,70.7,2.3v16.1c0,6.3-1.1,12.7-3.4,19c-100.6,0-201.2-1.7-301.2-5.2c-1.7-7.5-2.3-13.8-2.3-19.5c0-5.8,0-10.9,1.1-16.7C117.5,685.1,141.1,685.1,164.1,685.7z M336.5,552.3c0,29.9-1.1,46-2.3,49.4c-42.5,5.7-102.9,8.6-182.2,8.6c-9.2-28.7-14.4-63.8-16.7-106.3c59.8-5.7,124.7-9.2,195.4-9.2C334.2,513.2,336.5,532.8,336.5,552.3z M313.5,428.2c-1.1,5.7-1.7,11.5-2.3,17.2c-1.1,9.2-2.9,15.5-4,19c-25.3,0-50,0-74.7-0.6c-25.3,0-50,0-75.3-0.6c0-11.5,1.2-23.6,4-36.2C214.1,427.6,265.2,428.2,313.5,428.2z M295.7,571.3l-1.7-42l-112.7,4l4.6,41.9L295.7,571.3z M425.6,322.4c-8.6,9.2-20.1,20.1-35.1,31.6c-7.5,6.3-15.5,12.7-24.1,19.5c-4,4-7.5,7.5-10.9,9.8c9.2,8.6,17.8,16.7,26.4,24.2c12.1-12.7,24.7-25.3,37.4-36.8c10.3,8.6,20.1,17.8,29.3,28.2c-5.7,6.3-12.6,13.2-21.3,20.7c-4.6,4.6-9.8,9.2-14.4,13.8c-1.2,1.2-1.7,1.2-1.7,1.2c16.1,14.9,31.6,29.9,47.1,44.3c-8,10.3-17.8,19-29.3,24.7c-63.2-47.1-118.4-98.3-166.1-154c5.7-11.5,14.4-20.1,27-24.7c11.5,10.3,23.6,21.3,35.6,31.6c23-21.8,46.6-42.5,70.7-62.1C406.6,302.9,416.4,312.1,425.6,322.4z"/><path d="M732.5,585.1c-19.5,47.7-43.7,92.5-71.9,136.2c-13.8-5.2-24.1-11.5-31-18.4c21.8-43.7,35.1-73.6,40.2-90.2c-14.9-6.9-42.5-18.4-82.8-33.3c1.2-12.1,5.2-24.1,12.1-35.6C646.3,552.9,690.5,566.7,732.5,585.1z M830.8,464.4c11.5-44.3,20.1-83.4,25.9-117.8c-67.3-4-128.2-7.5-183.4-10.3c0-13.8,1.2-27,4-39.7c75.9,2.9,152.3,8,229.9,15.5c-3.5,32.8-9.2,64.4-17.2,94.3c-3.4,22.4-9.2,42.5-16.7,59.8c36.8,2.3,73,4,109.2,6.3v16.1c0,8.6-1.2,14.9-2.3,19c-59.8,0-115,0-165.5-1.2c12.7,69,20.7,137.4,23,204c-12.6,8-38.5,12.6-77,12.6c-2.9-10.9-4-22.4-4-33.9c10.9-1.7,22.4-4,33.9-6.3c-5.8-60.9-12.1-120.1-17.8-177.6c-70.1-1.7-130.5-4.6-181.1-8.6c-1.2-2.3-1.7-8.6-1.7-18.4c0-5.7,0.6-12.1,2.9-18.4C672.1,459.8,751.5,461.5,830.8,464.4z M810.7,381.6c1.2,5.2,2.3,10.9,2.3,17.2c0,5.7-0.6,10.9-1.1,15.5c-18.4,2.3-48.3,3.4-89.7,3.4c-17.8,0-31-0.6-39.7-2.3c-2.3-3.5-3.5-8.6-3.5-15.5c0-6.3,0.6-12.1,2.3-16.7c6.3-1.1,20.7-2.3,43.1-2.3C760.7,381,789.4,381.6,810.7,381.6z M982.5,665.6c-2.3,6.3-5.7,11.5-9.2,16.7c-3.4,5.7-6.9,11.5-10.9,16.7c-24.1-8-47.1-21.3-68.4-39.1c5.2-13.2,12.6-24.7,21.8-34.5C937.7,636.8,959.5,650.6,982.5,665.6z M990,543.7c-20.7,17.2-43.7,32.2-67.8,44.3c-11.5-8-20.1-17.2-26.4-28.2c18.4-17.2,41.9-32.2,70.1-44.8C977.9,523,986,532.8,990,543.7z"/></g>
</svg>